<?xml version="1.0" encoding="UTF-8"?>
<svg id="head" xmlns="http://www.w3.org/2000/svg" version="1.1" viewBox="0 0 316.35 192.88">
  <!-- Generator: Adobe Illustrator 29.8.2, SVG Export Plug-In . SVG Version: 2.1.1 Build 3)  -->
  <defs>
    <style>
      .st0, .st1, .st2, .st3, .st4, .st5, .st6, .st7, .st8, .st9, .st10, .st11, .st12, .st13, .st14, .st15, .st16 {
        stroke-miterlimit: 10;
      }

      .st0, .st4, .st5, .st6, .st16 {
        stroke-width: .5px;
      }

      .st0, .st7, .st10, .st11, .st12, .st13, .st14 {
        stroke: #000;
      }

      .st0, .st13, .st17 {
        fill: #413f65;
      }

      .st1, .st2, .st3, .st4, .st5, .st6, .st8, .st9, .st15, .st16 {
        stroke: #81a5bf;
      }

      .st1, .st2, .st3, .st7, .st8, .st9, .st10, .st12, .st13, .st14, .st15 {
        stroke-width: .5px;
      }

      .st1, .st5, .st18 {
        fill: #81a5bf;
      }

      .st2, .st19, .st12, .st16 {
        fill: #8cc4eb;
      }

      .st3, .st14 {
        fill: #5284d0;
      }

      .st4, .st8 {
        fill: #6ba0c7;
      }

      .st20, .st10 {
        fill: #edce75;
      }

      .st6, .st21, .st9 {
        fill: #d3eaf9;
      }

      .st7, .st11 {
        fill: #fff;
      }

      .st22 {
        fill: #2b2b40;
      }

      .st11 {
        stroke-width: .25px;
      }

      .st23 {
        fill: #9394a0;
      }

      .st15 {
        fill: none;
      }
    </style>
  </defs>
  <path class="st18" d="M233.26,120.84c-.08,0-.16,0-.24,0l-11.19-.04c-3.22-.14-9.19-.41-9.07-5.14l-.18-27.8c.24-8.17,3.09-8.12,8.74-8.01.47,0,.95.02,1.46.02l6.14.14c5.2.19,5.4.2,9.82,1,2.85.66,2.94,3.65,3.07,7.45.01.42.03.86.05,1.3l-.73,22.68h0s.4,3.39-1.67,5.91c-1.36,1.65-3.44,2.49-6.18,2.49ZM219.54,80.32c-4.39,0-6.27.72-6.47,7.53l.18,27.8c-.11,4.25,5.33,4.49,8.58,4.64l11.18.04c2.68.05,4.67-.7,5.98-2.23,1.98-2.32,1.63-5.58,1.62-5.61l.73-22.72c-.02-.43-.03-.86-.05-1.29-.12-3.72-.21-6.41-2.66-6.98-4.37-.79-4.57-.8-9.74-.99h-.19s-5.94-.14-5.94-.14c-.51,0-.99-.01-1.46-.02-.63-.01-1.22-.02-1.76-.02Z"/>
  <g>
    <path class="st19" d="M236.47,97.62c-2.59-.94-4.1-1.67-3.74-1.75,3.26-.68,4.16-1.49,4.97-4.68.65-2.56-1.23-6.84-3.7-7.71-2.3-.81-3.88-.11-4.99.74.99-1.52,1.93-2.8,3.45-3.81-.94-.05-2.09-.09-3.74-.16l-5.94-.13c-.53,0-1.04-.01-1.53-.02,1.27,1.44,1.61,3.05,1.87,3.87-.56-.52-1.84-.86-3.04-.79-.45.03-1.37.08-2.88,1.15-1.35.95-1.93,2.46-2.2,3.35-.22.71-.71,3.18.21,5.08.42.87,2.05,2.32,2.74,2.46-.07.1.31,1.3.62,2.46-.9.26-1.03.37-2.72.19-.16-.02-1.43-.4-2.96-1.27l.05,8.03c.23.28.39.73.51,1.02.08.19.31,1.12-.11,1.93-.1.2-.23.37-.38.51v2.29c.6.57.86,1.12,1.06,1.72.29.87.49,2.12-.04,3.72-.15.44-.49.75-.85.97.41,1.77,1.92,2.68,3.72,3.17-.02-.09-.04-.17-.05-.26-.51-3.98-.58-5.42.16-8.74.16-.7.5-1.36.99-1.89,1.25-1.37,1.7-1.35,3.26-1.76,1.48-.39,6.08-.76,9.81-.08,3.05.9,4.27,1.93,5.19,7.08.19,1.09.42,2.85-.14,5.91,5.34-1.56,4.85-7.53,4.8-7.77v-.09c-.32.1-.65.11-.95-.02-.58-.26-.76-.93-.9-1.45-.08-.31-.31-1.59.33-2.39.44-.55.59-.51.83-.5.09,0,.43.15.82.38.03-.84.05-1.67.08-2.51.08-2.47.16-4.94.24-7.41-1.23.13-2.76-.09-4.84-.85Z"/>
    <path class="st21" d="M236.2,114.31c-.92-5.16-2.14-6.19-5.19-7.08-3.73-.68-8.33-.31-9.81.08-1.56.41-2.01.39-3.26,1.76-.49.53-.83,1.19-.99,1.89-.74,3.31-.67,4.76-.16,8.74.01.09.04.17.05.26,1.64.44,3.51.53,4.98.6l11.19.04c1.19.02,2.19-.13,3.05-.38.56-3.05.34-4.82.14-5.91Z"/>
    <path class="st17" d="M239.34,108.51c-.64.8-.41,2.08-.33,2.39.14.52.32,1.19.9,1.45.3.13.63.12.96.02.04-1.33.09-2.65.13-3.98-.39-.23-.74-.38-.82-.38-.25,0-.39-.04-.83.5Z"/>
    <path class="st13" d="M218.55,97.69c-.3-1.16-.69-2.36-.62-2.46-.7-.14-2.33-1.59-2.74-2.46-.91-1.91-.42-4.38-.21-5.08.27-.89.85-2.4,2.2-3.35,1.52-1.07,2.44-1.12,2.88-1.15,1.2-.07,2.48.27,3.04.79-.26-.83-.6-2.43-1.87-3.87-5.54-.11-8.19-.12-8.42,7.75l.06,8.75c1.52.87,2.8,1.26,2.96,1.27,1.68.18,1.81.07,2.72-.19Z"/>
    <path class="st17" d="M213.97,115.82c.54-1.6.33-2.84.04-3.72-.2-.6-.47-1.15-1.05-1.72l.03,5.29c-.01.41.04.78.12,1.12.35-.22.7-.53.85-.97Z"/>
    <path class="st17" d="M213.44,105.65c-.12-.29-.28-.74-.51-1.02l.02,3.46c.14-.15.28-.32.38-.51.42-.81.19-1.74.11-1.93Z"/>
    <path class="st17" d="M213.44,105.65c-.12-.29-.28-.74-.51-1.02l.02,3.46c.14-.15.28-.32.38-.51.42-.81.19-1.74.11-1.93Z"/>
    <path class="st13" d="M238.69,81.27c-3.09-.56-4.12-.73-6.24-.85-1.52,1.01-2.46,2.29-3.45,3.81,1.12-.85,2.69-1.55,4.99-.74,2.47.87,4.35,5.15,3.7,7.71-.81,3.2-1.71,4.01-4.97,4.68-.35.07,1.15.8,3.74,1.75,2.09.76,3.62.98,4.84.85.09-2.89.19-5.79.28-8.68-.18-4.36.04-7.84-2.9-8.52Z"/>
  </g>
  <path class="st10" d="M234.83,99.41c-1.56-2.25-4.46-1.65-5.75-3.79-1.83-2.18-1.38-4.11-1.71-6.73-3.34-.45-5.05-.89-7.97-.38-1.39.24-2.1.78-1.98,2.09.66,4.29.75,7.09,2.67,10.29.36.6,1.67,1.48,3.18,1.7.05.05.11.1.16.15.01-.04.03-.09.04-.13.17.02.34.03.51.03,1.3-.01,3.49-.02,6.34-2.15,1.25-.94.84-1.37,2.21-1.58,1.04.17,1.6.87,1.74,1.61.1.53,0,1.09-.35,1.49-1.68,2-3.22,1.93-5.99,2.26-2.13.25-3.79.02-4.63-.12-.38-.06-.62-.11-.62-.07-.03.12,1.86,1.23,5.48.99,1.82-.12,6.01-.39,6.93-2.63.52-1.25.42-2.05-.25-3.02Z"/>
  <g id="ear_rigth">
    <path id="ear_outside" class="st13" d="M213.76,81.97c1.47-5.46,3.39-13.2,4.84-14.57.08-.08.21-.04.26.05,1.91,3.61,4.83,9.02,6.97,12.93-3.86-.03-6.36.19-10.41.53-.98.31-.86.49-1.65,1.06Z"/>
    <path id="ear_inside" class="st20" d="M216.82,80.38c.08-1.65,1.03-6.72,1.8-8.12.25-.46.57-.09.57-.09.57.86.98,1.81,2.01,3.74.52.98,1.29,2.29,2.29,4.3-2.22.07-4.45.09-6.67.16Z"/>
  </g>
  <g id="ear_left">
    <path id="ear_outside1" data-name="ear_outside" class="st13" d="M229.11,80.18c2.53.07,2.69-.51,8.05.35.2.03,1.11.31,1.3.4.53.26.94.39,1.28.65.09.07.84.44,1,.76.26.52-.08-.46-.08-.48-.18-.6-.33-.88-.38-1.01-1.42-3.54-5.08-11.13-7.21-13.4-.25-.26-.5-.15-.63.19-1.46,4-2.18,7.43-3.76,11.74-.03.09-.19.36-.21.78.14-.05.56.01.63.02Z"/>
    <path id="ear_inside1" data-name="ear_inside" class="st20" d="M233.94,72.25c2.13,4.08,2.32,4.97,3.67,8.59-3.19-.2-4-.56-6.82-.66.57-2.74,1.68-6.44,2.37-7.92.15-.33.61-.33.78-.01Z"/>
  </g>
  <g id="eye_rigth">
    <path id="pupil_rigth" class="st7" d="M217.89,94.84c-.74.18-4.06-2.18-2.81-7.12.12-.83.81-2.22,2.41-3.58.59-.49,2.03-1.05,3.44-.91,2.53.38,3.65,2.45,3.92,5.3.17.03-4.87-.54-6.68.18-.31.12-.55.39-.62.72-.37,1.59.39,2.71.34,5.41Z"/>
    <path id="pupil_rigth1" data-name="pupil_rigth" d="M221.63,88.43c-.04-1.36-.57-2.44-1.51-2.49-1.1.08-1.73.74-2.08,2.65,0,.03,0,.05,0,.08.97-.2,2.31-.25,3.61-.24Z"/>
  </g>
  <g id="eye_left">
    <path id="eye_ext" class="st7" d="M237.62,89.56c0,.56-.14,2.95-1.69,4.7-.16.18-2.02,1.78-4.9,1.28-2.85-.52-3.7-3.84-3.58-6.33.13-2.71,1.27-6.11,4.79-6.01,3.45.49,5.39,3.04,5.39,6.36Z"/>
    <path id="pupil_left" d="M233.63,89.24c0,1.21-.64,2.26-1.5,2.19-1.07,0-1.36-.98-1.36-2.19s.51-2.19,1.43-2.19,1.43.98,1.43,2.19Z"/>
  </g>
  <g id="tail">
    <path class="st0" d="M237.33,122.03l.44,6.24c.25,1.36.58,2.01,2.31,1.11.01,0,.42-.37.43-.37,0,0-.4.41-.4.41,0,0,.47.7.97.81.11.04,1.12-.13,1.22-.18,1.33-.68,1.05-1.56.82-3.05-.02-.11.11-.2.13-.25,0,0,.57-.31.77-.48.21-.46.28-1.03.24-1.01-.01-.28-.72-4.66-1.69-5.63-1.74,1.27-3.47,2.7-5.25,2.4Z"/>
    <path class="st2" d="M240.26,116.51h-.07c-.74,2.19-1.88,2.88-3.02,3.28l.16,2.23c1.78.3,3.91-.88,5.25-2.4-.2-.68.28.76,0,0-.72-1.92-1.26-2.73-2.32-3.11Z"/>
  </g>
  <g id="leg_rigth">
    <path class="st9" d="M212.78,134.32c0,.29.13.56.36.74.55.42,1.46.69,2.55.82,1.6.19,3.6.09,5.42-.25.33-.06.74-.16.95-.42.34-.4.36-.98.2-1.7-.24-1.09-.8-1.39-1.24-1.97.19-1.27.37-2.48.52-3.64-.91.17-2.11.37-3.86.14-1.43-.19-2.32-.55-3-.83-.14,1.23-.34,2.66-.62,4.37-1.16,1.08-1.31,1.94-1.29,2.73Z"/>
    <path class="st2" d="M221.54,127.9c.25-1.9.45-3.63.56-5.14-.86-.12-2-.36-3.51-.69-.74-.16-1.83-.41-3.5-.76-.05,1.52-.11,3.24-.42,5.9.68.28,1.57.64,3,.83,1.75.23,2.95.03,3.86-.14Z"/>
    <path class="st8" d="M222.1,122.77c.05-.72.09-1.39.11-2-3.99.06-5.03-.14-7.05-1.14-.03.56-.04,1.11-.06,1.68,1.66.35,2.76.6,3.5.76,1.51.33,2.65.57,3.51.69Z"/>
    <path class="st1" d="M216.32,132.8c-1.09,2.17-.63,3.08-.63,3.08"/>
    <path class="st3" d="M218.85,132.95s.79.56.81,2.89"/>
  </g>
  <g id="leg_left">
    <path class="st6" d="M229.68,134.24c0,.31-.27,1.26,1.58,1.73.39.07.78.12,1.18.15,1.94.15,3.98-.16,5.23-.22.81-.04,1.49-.15,1.65-1.58-.13-1.74-1.2-1.95-1.31-2.85-.2-1.59-.24-2.66-.25-3.69-.8.28-1.81.6-3.26.72-1.69.13-2.85-.12-3.72-.34.09,1.02.15,2.14.18,3.41-.51.8-1.13,1.54-1.27,2.67Z"/>
    <path class="st4" d="M237.44,122.05c-.07-.64-.16-1.34-.27-2.13-2.75,1.01-5.77.74-7.18.92.02.61.08,1.21.14,1.83.78-.06,1.89-.2,3.49-.34,1.72-.15,2.94-.21,3.82-.28Z"/>
    <path class="st16" d="M234.49,128.5c1.45-.11,2.46-.44,3.26-.72-.02-1.48.01-2.91-.31-5.73-.88.07-2.1.13-3.82.28-1.6.14-2.71.28-3.49.34.17,1.61.46,3.31.64,5.5.87.22,2.03.47,3.72.34Z"/>
    <path class="st5" d="M235.71,133.05s1.03,1.09.81,3.08"/>
    <path class="st5" d="M233.26,132.98c-1.07,1.37-.82,3.15-.82,3.15"/>
  </g>
  <g id="arm_left">
    <path class="st12" d="M245.77,96.26c-1.6,1.16-3.03,2.23-4.66,3.44-.11,2.43-.21,4.75-.23,6.27,1.19-.61,4.78-3.31,8.27-5.9-.81-1.37-2.13-2.88-3.38-3.81Z"/>
    <path class="st9" d="M253.61,96.15c.84-1.25-.37-1.99-1.04-1.99.45-.15-.11-2.79-2.23-1.15-.94-.23-1.76.38-2.12,1.46-.89.62-1.69,1.19-2.45,1.75l3.38,3.81c.87-.65,1.73-1.28,2.55-1.88,2.25.58,2.59-1.4,1.91-2Z"/>
    <path class="st14" d="M249.52,94.74"/>
    <path class="st15" d="M250.34,93.01c.8.42,1.44,1.43,1.25,2.06-.12.38-.48.83-.99.85-.54.02-1-.59-1.08-1.3"/>
    <path class="st15" d="M253.61,96.15c-.18.03-.74.69-1.58.43-.68-.21-.95-.58-1.03-.81"/>
    <path class="st15" d="M251.75,98.16c-.08-.17-.38-.55-.35-1.08.02-.32.11-.54.22-.68"/>
  </g>
  <g id="arm_rigth">
    <path class="st12" d="M212.65,99.67c-1.52-1.59-2.67-2.18-4.18-3.4-1.24.93-2.55,2.19-3.3,3.78,2.91,2.37,6.24,4.71,7.13,5.78.07.08.52.54.51.44-.06-3.44-.02-3.44-.17-6.6Z"/>
    <path class="st9" d="M208.47,96.27c-.65-.52-1.36-1.16-2.2-2.04-.15-.99-.97-1.45-1.92-1.43-.8-1.1-2.61-.68-2.34,1.01-1.03,0-1.75,1.2-1.14,1.93-.3.39-.33,1.15-.15,1.5.61.8.83.46,1.93.61.74.71,1.61,1.46,2.52,2.2.74-1.59,2.06-2.85,3.3-3.78Z"/>
    <path class="st3" d="M202,93.75c.33.13.54.27.88.4"/>
    <path class="st15" d="M205.26,94.5c-.25.75-.98,1.15-1.55.99-.71-.2-1-1.2-.68-1.87.28-.58,1.23-.79,1.32-.81"/>
    <path class="st15" d="M202.65,97.85c.07-.13.45-.83.42-1.27-.03-.45.02-.41-.07-.53"/>
    <path class="st15" d="M200.87,95.74c.07.07.77.61,1.35.58.51-.02,1.06-.45,1.3-.92"/>
  </g>
  <g id="nose">
    <path id="nose_ext" class="st22" d="M226.01,90.59c-.46,1.47-2.12,3.11-3.6,4.08-.67.33-.77.37-1.7-.13-2.44-2.56-2.84-3.98-2.64-4.81.14-.43.17-.41.53-.82.73-.59,4.6-.62,6.12-.28.2.04.63.1.95.4.12.1.28.27.39.57.11.32.04.69-.06,1Z"/>
    <ellipse class="st23" cx="221.81" cy="89.54" rx="2.54" ry=".77"/>
  </g>
  <path class="st11" d="M227.8,104.29c2.78-.33,4.31-.26,5.99-2.26.34-.4.45-.96.35-1.49-.49.66-1.57,1.63-2.87,1.46-1.53,1.41-2.77,1.35-3.91,1.15-1.71.84-2.98.3-3.42.07-.07-.04-.13-.07-.13-.07,0,0-.18-.11-.34-.23-.07-.05-.12-.11-.17-.16-.16.49-.29,1.07-.21,1.31.01.04.05.08.07.11.85.14,2.51.37,4.63.12Z"/>
  <path class="st11" d="M223.85,103.16s.06.04.13.07c.44.23,1.71.77,3.42-.07,1.14.2,2.38.26,3.91-1.15,1.3.17,2.38-.8,2.87-1.46-.14-.74-.7-1.44-1.74-1.61-1.37.21-.96.64-2.21,1.58-2.85,2.14-5.04,2.14-6.34,2.15-.17,0-.34-.02-.51-.03-.02.04-.03.08-.04.13.06.05.11.11.17.16.16.12.34.23.34.23Z"/>
  <g id="eyerbrow_rigth">
    <path class="st9" d="M223.01,78.33c.12.41.12,1.01-.16,1.36-.43.53-1.05.62-2.04.65-1.73.06-1.76,1.17-3.12,1.65-.78.28-1.43-.18-1.72-.86,0,0-.46-.97.1-1.89s2.03-2.31,4.63-2.16c.87.09,1.85.34,2.31,1.26Z"/>
  </g>
  <g id="eyerbrow_left">
    <path class="st9" d="M237.26,79.8c1.26,1.29.03,2.88-.47,2.97-.67.12-.7.1-1.44-.27-1.74-1.47-3.05-1.42-3.45-1.46-.82-.07-1.23-.36-1.48-1.53-.09-.71.68-1.19,1.22-1.39.32-.12,1.46-.54,3.45.14,1.43.69,1.08.43,2.16,1.54Z"/>
  </g>
</svg>